<?xml version="1.0" encoding="utf-8"?>
<!-- Generator: Adobe Illustrator 24.0.2, SVG Export Plug-In . SVG Version: 6.00 Build 0)  -->
<svg version="1.1" id="Layer_1" xmlns="http://www.w3.org/2000/svg" xmlns:xlink="http://www.w3.org/1999/xlink" x="0px" y="0px"
	 viewBox="0 0 257.7 257.7" style="enable-background:new 0 0 257.7 257.7;" xml:space="preserve">
<style type="text/css">
	.st0{fill:#FFFFFF;}
</style>
<path id="Blue_1_" d="M243.5,257.7c7.9,0,14.2-6.4,14.2-14.2V14.2c0-7.9-6.4-14.2-14.2-14.2H14.2C6.4,0,0,6.4,0,14.2v229.3
	c0,7.9,6.4,14.2,14.2,14.2H243.5z"/>
<path id="f" class="st0" d="M177.8,257.7v-99.8h33.5l5-38.9h-38.5V94.2c0-11.3,3.1-18.9,19.3-18.9l20.6,0V40.5
	c-3.6-0.5-15.8-1.5-30-1.5c-29.7,0-50,18.1-50,51.4V119h-33.6v38.9h33.6v99.8H177.8z"/>
</svg>
