<?xml version="1.0" encoding="utf-8"?>
<!-- Generator: Adobe Illustrator 24.0.2, SVG Export Plug-In . SVG Version: 6.00 Build 0)  -->
<svg version="1.1" id="Layer_1" xmlns="http://www.w3.org/2000/svg" xmlns:xlink="http://www.w3.org/1999/xlink" x="0px" y="0px"
	 viewBox="0 0 503.9 503.9" style="enable-background:new 0 0 503.9 503.9;" xml:space="preserve">
<style type="text/css">
	.st0{fill:#FFFFFF;}
</style>
<g>
	<path d="M0,335c0-55.3,0-110.7,0-166c0.3-1.6,0.8-3.1,0.8-4.7c0.5-19.6,1.4-39.2,6.3-58.3C17.9,63.1,42.9,32,83.7,14.4
		c23.8-10.2,49-12.7,74.5-13.4c3.6-0.1,7.1-0.6,10.7-1c55.3,0,110.7,0,166,0c1.6,0.3,3.1,0.8,4.7,0.8c19.6,0.5,39.2,1.4,58.3,6.3
		c42.8,10.8,73.9,35.8,91.5,76.6c10.2,23.8,12.7,49,13.4,74.5c0.1,3.6,0.6,7.1,1,10.7c0,55.3,0,110.7,0,166
		c-0.3,1.6-0.8,3.1-0.8,4.7c-0.5,19.6-1.4,39.2-6.3,58.3c-10.8,42.8-35.8,73.9-76.6,91.5c-23.8,10.2-49,12.7-74.5,13.4
		c-3.6,0.1-7.1,0.6-10.7,1c-55.3,0-110.7,0-166,0c-1.6-0.3-3.1-0.8-4.7-0.8c-19.6-0.5-39.2-1.4-58.3-6.3
		C63.1,486,32,461.1,14.4,420.2C4.2,396.4,1.7,371.2,1,345.7C0.9,342.1,0.3,338.5,0,335z M45.1,251.9c0.3,0,0.6,0,0.9,0
		c0,25-0.6,50,0.2,74.9c0.7,19.4,1.5,39.1,5.2,58c6.6,33.8,27.2,56.6,60.7,65.9c12.1,3.4,24.8,5.2,37.3,5.8
		c25.9,1.3,51.9,1.5,77.9,1.6c29.3,0.2,58.6,0.3,87.9-0.4c21.6-0.6,43.4-1,64.7-4.3c35.5-5.5,60.3-25.6,70.6-60.7
		c3.7-12.5,5.5-25.8,6.1-38.8c1.3-28.1,1.5-56.3,1.6-84.4c0.2-30.8,0.1-61.6-0.5-92.4c-0.4-19.6-0.4-39.3-5-58.6
		c-7.9-33.3-27.5-56.2-60.8-65.6c-12.2-3.4-25.1-5.3-37.8-5.9c-26.9-1.3-53.9-1.4-80.9-1.6c-28.1-0.2-56.3-0.3-84.4,0.4
		c-21.8,0.6-43.7,1-65.1,4.3c-35.3,5.5-60,25.5-70.3,60.5c-3.8,12.8-5.7,26.4-6.2,39.8C45.9,184.3,45.7,218.1,45.1,251.9z"/>
	<path class="st0" d="M169,0c-3.6,0.3-7.1,0.9-10.7,1c-25.5,0.7-50.8,3.2-74.5,13.4C42.9,32,17.9,63.1,7.1,105.9
		c-4.8,19.1-5.8,38.7-6.3,58.3c0,1.6-0.5,3.1-0.8,4.7C0,112.7,0,56.5,0,0C56.3,0,112.7,0,169,0z"/>
	<path class="st0" d="M503.9,169c-0.3-3.6-0.9-7.1-1-10.7c-0.7-25.5-3.2-50.8-13.4-74.5C471.9,42.9,440.8,17.9,398,7.1
		c-19.1-4.8-38.7-5.8-58.3-6.3c-1.6,0-3.1-0.5-4.7-0.8c56.3,0,112.7,0,169,0C503.9,56.3,503.9,112.7,503.9,169z"/>
	<path class="st0" d="M0,335c0.3,3.6,0.9,7.1,1,10.7c0.7,25.5,3.2,50.8,13.4,74.5c17.6,40.9,48.7,65.8,91.5,76.6
		c19.1,4.8,38.7,5.8,58.3,6.3c1.6,0,3.1,0.5,4.7,0.8c-56.3,0-112.7,0-169,0C0,447.6,0,391.3,0,335z"/>
	<path class="st0" d="M335,503.9c3.6-0.3,7.1-0.9,10.7-1c25.5-0.7,50.8-3.2,74.5-13.4c40.9-17.6,65.8-48.7,76.6-91.5
		c4.8-19.1,5.8-38.7,6.3-58.3c0-1.6,0.5-3.1,0.8-4.7c0,56.3,0,112.7,0,169C447.6,503.9,391.3,503.9,335,503.9z"/>
	<path class="st0" d="M45.1,251.9c0.6-33.8,0.7-67.6,2.1-101.4c0.5-13.3,2.5-27,6.2-39.8c10.3-34.9,35-55,70.3-60.5
		c21.4-3.3,43.4-3.7,65.1-4.3c28.1-0.8,56.3-0.6,84.4-0.4c27,0.2,54,0.4,80.9,1.6c12.7,0.6,25.6,2.5,37.8,5.9
		c33.3,9.4,53,32.2,60.8,65.6c4.5,19.3,4.6,39,5,58.6c0.6,30.8,0.6,61.6,0.5,92.4c-0.2,28.1-0.3,56.3-1.6,84.4
		c-0.6,13-2.5,26.3-6.1,38.8c-10.3,35.1-35.1,55.3-70.6,60.7c-21.3,3.3-43.1,3.7-64.7,4.3c-29.3,0.7-58.6,0.6-87.9,0.4
		c-26-0.2-52-0.4-77.9-1.6c-12.5-0.6-25.3-2.5-37.3-5.8c-33.6-9.3-54.1-32.2-60.7-65.9c-3.7-19-4.5-38.6-5.2-58
		c-0.8-25-0.2-50-0.2-74.9C45.7,251.9,45.4,251.9,45.1,251.9z M256.4,122.5c-69.9-2.5-131.2,51.8-133.9,125.1
		c-2.5,69.8,51.8,131.2,125.1,133.9c69.9,2.5,131.2-51.8,133.9-125.1C383.9,186.5,329.6,125.1,256.4,122.5z M416.8,117.6
		c0-16.9-13.6-30.5-30.4-30.5c-16.8,0-30.5,13.8-30.4,30.5c0.1,16.5,13.7,30.2,30.2,30.3C403,148,416.8,134.4,416.8,117.6z"/>
	<path d="M256.4,122.5c73.2,2.6,127.6,64,125.1,133.9c-2.6,73.2-64,127.6-133.9,125.1c-73.3-2.6-127.6-64-125.1-133.9
		C125.1,174.3,186.5,120,256.4,122.5z M251.9,168.1c-45.9,0-83.8,37.7-83.8,83.4c0,46.4,37.5,84.3,83.4,84.3
		c46.4,0,84.3-37.5,84.3-83.4C335.8,205.8,298.3,168.1,251.9,168.1z"/>
	<path d="M416.8,117.6c0,16.8-13.8,30.4-30.6,30.3c-16.5-0.1-30.1-13.7-30.2-30.3c-0.1-16.8,13.6-30.5,30.4-30.5
		C403.2,87.1,416.9,100.8,416.8,117.6z"/>
	<path class="st0" d="M251.9,168.1c46.4,0,83.9,37.7,83.9,84.3c0,45.9-37.9,83.4-84.3,83.4c-45.9,0-83.4-37.9-83.4-84.3
		C168.2,205.8,206,168.1,251.9,168.1z"/>
</g>
</svg>
