<?xml version="1.0" encoding="utf-8"?>
<!-- Generator: Adobe Illustrator 24.0.2, SVG Export Plug-In . SVG Version: 6.00 Build 0)  -->
<svg version="1.1" id="Layer_1" xmlns="http://www.w3.org/2000/svg" xmlns:xlink="http://www.w3.org/1999/xlink" x="0px" y="0px"
	 viewBox="0 0 128.9 128.6" style="enable-background:new 0 0 128.9 128.6;" xml:space="preserve">
<style type="text/css">
	.st0{fill:#FEFEFF;}
	.st1{fill:#5E8EC5;}
</style>
<g>
	<path d="M8.4,128.6c-0.2,0-0.3,0-0.5,0c-0.3-0.4-0.8-0.3-1.2-0.5c-3.9-1.2-6.5-4.8-6.5-8.8c0-36.7,0-73.3,0-110
		c0-4,2.6-7.5,6.4-8.8C7.2,0.4,7.8,0.4,8.2,0c0.2,0,0.3,0,0.5,0c0.4,0.3,0.9,0.2,1.4,0.2c36.3,0,72.7,0,109,0c0.5,0,1,0.1,1.4-0.2
		c0.1,0,0.2,0,0.2,0c0.1,0.3,0.4,0.2,0.6,0.3c4.4,1,7.3,4.7,7.3,9.3c0,36.5,0,73,0,109.5c0,4.5-2.9,8.1-7.2,9.2
		c-0.2,0.1-0.6-0.1-0.7,0.3c-0.2,0-0.3,0-0.5,0c-0.4-0.4-0.9-0.2-1.4-0.2c-36.3,0-72.7,0-109,0C9.3,128.4,8.8,128.3,8.4,128.6z
		 M68.6,56.6c0-0.4-0.1-0.8-0.1-1.1c0-2,0-4,0-6c0-0.9-0.3-1.2-1.2-1.1c-5.3,0-10.6,0-15.8,0c-1,0-1.3,0.3-1.3,1.3
		c0,19.6,0,39.2,0,58.8c0,1,0.3,1.2,1.2,1.2c5.5,0,11-0.1,16.6,0c1.1,0,1.3-0.3,1.3-1.3c0-10.1,0-20.2,0-30.2c0-2.2,0.2-4.3,0.7-6.4
		c1.4-5.6,5.4-8.4,11.1-8c5,0.3,7.7,2.6,8.8,7.5c0.5,2.2,0.7,4.5,0.7,6.8c0,10.2,0,20.3,0,30.5c0,1,0.3,1.3,1.3,1.3
		c5.5,0,11,0,16.6,0c1,0,1.2-0.3,1.2-1.2c0-10.8,0-21.5,0-32.3c0-5.1-0.3-10.1-1.7-15.1c-1.9-6.5-5.8-11.1-12.4-13.1
		c-2.7-0.8-5.5-1-8.3-1.1c-7.8-0.2-13.8,2.9-18.1,9.4C69,56.4,68.9,56.6,68.6,56.6z M38.3,78.9c0-9.8,0-19.6,0-29.4
		c0-1-0.3-1.3-1.3-1.3c-5.5,0-11,0-16.5,0c-1,0-1.3,0.3-1.3,1.3c0,19.6,0,39.2,0,58.8c0,0.9,0.3,1.2,1.2,1.2c5.5,0,11-0.1,16.5,0
		c1.1,0,1.3-0.3,1.3-1.3C38.3,98.4,38.3,88.7,38.3,78.9z M28.8,39.9c6.1,0,11-5,11-11.1c0-6-5-10.9-11-10.9c-6.1,0-11,5-11,11.1
		C17.8,34.9,22.8,39.9,28.8,39.9z"/>
	<path class="st0" d="M8.2,0c-0.4,0.4-1,0.3-1.5,0.5C2.9,1.8,0.2,5.3,0.2,9.3c0,36.7,0,73.3,0,110c0,4,2.7,7.6,6.5,8.8
		c0.4,0.1,0.9,0.1,1.2,0.5c-2.4,0-4.9,0-7.3,0c-0.5,0-0.7-0.1-0.6-0.6c0-0.2,0-0.3,0-0.5C0,85.4,0,43.2,0,1.1C0,0.2,0.2,0,1.1,0
		C3.5,0.1,5.8,0,8.2,0z"/>
	<path class="st0" d="M120.7,128.6c0.1-0.4,0.5-0.2,0.7-0.3c4.4-1.1,7.2-4.7,7.2-9.2c0-36.5,0-73,0-109.5c0-4.6-2.9-8.2-7.3-9.3
		c-0.2-0.1-0.5,0-0.6-0.3c2.5,0,5,0,7.5,0c0.5,0,0.7,0.1,0.6,0.6c0,0.2,0,0.3,0,0.5c0,42.1,0,84.3,0,126.4c0,0.9-0.2,1.1-1.1,1.1
		C125.4,128.6,123.1,128.6,120.7,128.6z"/>
	<path class="st1" d="M120.5,0c-0.4,0.4-0.9,0.2-1.4,0.2c-36.3,0-72.7,0-109,0c-0.5,0-1,0.1-1.4-0.2C45.9,0,83.2,0,120.5,0z"/>
	<path class="st1" d="M8.4,128.6c0.4-0.4,0.9-0.2,1.4-0.2c36.3,0,72.7,0,109,0c0.5,0,1-0.1,1.4,0.2C83,128.6,45.7,128.6,8.4,128.6z"
		/>
	<path class="st0" d="M68.6,56.6c0.3,0,0.4-0.2,0.5-0.4c4.3-6.5,10.3-9.6,18.1-9.4c2.8,0.1,5.6,0.3,8.3,1.1
		c6.7,1.9,10.6,6.5,12.4,13.1c1.4,4.9,1.7,10,1.7,15.1c0,10.8,0,21.5,0,32.3c0,0.9-0.2,1.2-1.2,1.2c-5.5,0-11,0-16.6,0
		c-1,0-1.3-0.3-1.3-1.3c0-10.2,0-20.3,0-30.5c0-2.3-0.1-4.6-0.7-6.8c-1.1-4.9-3.8-7.2-8.8-7.5c-5.8-0.4-9.7,2.5-11.1,8
		c-0.5,2.1-0.7,4.2-0.7,6.4c0,10.1,0,20.2,0,30.2c0,1-0.2,1.4-1.3,1.3c-5.5-0.1-11,0-16.6,0c-0.9,0-1.2-0.2-1.2-1.2
		c0-19.6,0-39.2,0-58.8c0-1,0.3-1.3,1.3-1.3c5.3,0,10.6,0,15.8,0c0.9,0,1.2,0.3,1.2,1.1c-0.1,2,0,4,0,6
		C68.5,55.8,68.6,56.2,68.6,56.6z"/>
	<path class="st0" d="M38.3,78.9c0,9.8,0,19.5,0,29.3c0,1.1-0.3,1.3-1.3,1.3c-5.5-0.1-11,0-16.5,0c-0.9,0-1.2-0.3-1.2-1.2
		c0-19.6,0-39.2,0-58.8c0-1,0.3-1.3,1.3-1.3c5.5,0,11,0,16.5,0c1,0,1.3,0.3,1.3,1.3C38.3,59.3,38.3,69.1,38.3,78.9z"/>
	<path class="st0" d="M28.8,39.9c-6,0-11-4.9-11-10.9c0-6.1,4.9-11.1,11-11.1c6,0,11,4.9,11,10.9C39.8,34.9,34.9,39.8,28.8,39.9z"/>
</g>
</svg>
