<?xml version="1.0" encoding="utf-8"?>
<!-- Generator: Adobe Illustrator 24.0.3, SVG Export Plug-In . SVG Version: 6.00 Build 0)  -->
<svg version="1.1" id="Layer_1" xmlns="http://www.w3.org/2000/svg" xmlns:xlink="http://www.w3.org/1999/xlink" x="0px" y="0px"
	 viewBox="0 0 430.33 44.5" style="enable-background:new 0 0 430.33 44.5;" xml:space="preserve">
<style type="text/css">
	.st0{fill:#231F20;}
</style>
<path class="st0" d="M36.98,44.5V21.94c0-2.15-1.23-3.84-3.38-3.84h-1.53c-2.22,0-2.07,0.23-3.68,1.76l-3.99,3.68V44.5h-5.52V21.94
	c0-2.15-1.23-3.84-3.3-3.84h-0.84c-1.3,0-1.38,0.08-2.46,1l-6.75,6.14V44.5H0V13.04h5.52v5.98l3.84-3.53c1.15-1,2.61-2.46,4.99-2.46
	h1.15c3.91,0,6.29,2.07,7.83,5.37l2.92-2.92c1.07-1.07,2.61-2.38,4.99-2.46h1.99c5.68-0.08,9.28,4.14,9.28,9.74V44.5H36.98z
	 M60.15,31.69v3.91c0,2.15,1.69,3.84,3.84,3.84h16.5v5.06H64.52c-5.6,0-9.74-4.14-9.74-9.74V22.79c0-5.6,4.14-9.74,9.74-9.74H74.8
	c5.68,0,9.74,4.14,9.74,9.74v8.9H60.15z M79.18,22.17c0-2.15-1.69-3.84-3.84-3.84H63.99c-2.15,0-3.84,1.69-3.84,3.84v4.6h19.03
	V22.17z M106.57,44.5c-5.6,0-9.74-4.14-9.74-9.74V22.79c0-5.52,4.14-9.74,9.74-9.74h5.91c2.46,0,4.45,1.38,5.52,2.46l3.68,3.53V0
	h5.37v44.5H106.57z M121.68,25.24l-5.83-5.37c-1.61-1.53-1.99-1.76-4.22-1.76h-5.6c-2.15,0-3.84,1.76-3.84,3.84v13.81
	c0,2.15,1.69,3.84,3.84,3.84h15.65V25.24z M139.33,44.5v-4.91h6.44V18.11h-6.44v-5.06h11.81v26.55h6.6v4.91H139.33z M145.46,5.83V0
	h5.83v5.83H145.46z M192.11,25.01V22.1c0-2.53-1.15-3.84-3.84-3.84h-10.59c-2.15,0-3.84,1.69-3.84,3.84v13.35
	c0,2.15,1.69,3.84,3.84,3.84h16.8v5.22h-16.27c-5.6,0-9.74-4.22-9.74-9.9V22.79c0-5.6,4.14-9.74,9.74-9.74h9.51
	c6.21,0,9.74,3.38,9.74,9.28v2.69H192.11z M229.78,44.5h-5.45c-5.6,0-9.67-4.14-9.67-9.74V18.11h-6.44v-5.06h6.44V0h5.37v13.04h7.67
	v5.06h-7.67v17.34c0,2.15,1.76,3.84,3.84,3.84h6.29c2.15,0,3.84-1.69,3.84-3.84v-2.92h5.52v2.23
	C239.52,40.36,235.46,44.5,229.78,44.5z M254.1,31.69v3.91c0,2.15,1.69,3.84,3.84,3.84h16.49v5.06h-15.96
	c-5.6,0-9.74-4.14-9.74-9.74V22.79c0-5.6,4.14-9.74,9.74-9.74h10.28c5.68,0,9.74,4.14,9.74,9.74v8.9H254.1z M273.13,22.17
	c0-2.15-1.69-3.84-3.84-3.84h-11.35c-2.15,0-3.84,1.69-3.84,3.84v4.6h19.03V22.17z M290.78,44.5v-4.91h6.52V4.83h-6.52V0h11.89
	v39.59h6.52v4.91H290.78z M346.25,44.5v-4.91h7.06V8.21l-4.53,4.22l-3.15-3.22L354.15,0h4.53v39.59h7.21v4.91H346.25z M385.22,44.5
	h-7.06c-0.46,0-0.77-0.31-0.77-0.77v-7.06c0-0.46,0.31-0.77,0.77-0.77h7.06c0.46,0,0.77,0.31,0.77,0.77v7.06
	C385.99,44.19,385.68,44.5,385.22,44.5z M420.59,44.5h-11.97c-5.6,0-9.74-4.14-9.74-9.74V9.74c0-5.6,4.14-9.74,9.74-9.74h11.97
	c5.68,0,9.74,4.14,9.74,9.74v25.01C430.33,40.36,426.27,44.5,420.59,44.5z M424.96,9.28c0-2.07-1.69-4.07-3.84-4.07h-13.04
	c-2.15,0-3.84,1.99-3.84,4.07v25.93c0,2.07,1.69,4.07,3.84,4.07h13.04c2.15,0,3.84-2,3.84-4.07V9.28z M416.98,25.32h-4.53
	c-0.46,0-0.77-0.31-0.77-0.77v-4.53c0-0.46,0.31-0.77,0.77-0.77h4.53c0.46,0,0.77,0.31,0.77,0.77v4.53
	C417.75,25.01,417.44,25.32,416.98,25.32z"/>
</svg>
