<?xml version="1.0" encoding="utf-8"?>
<!-- Generator: Adobe Illustrator 24.0.3, SVG Export Plug-In . SVG Version: 6.00 Build 0)  -->
<svg version="1.1" id="Layer_1" xmlns="http://www.w3.org/2000/svg" xmlns:xlink="http://www.w3.org/1999/xlink" x="0px" y="0px"
	 viewBox="0 0 309.19 97.7" style="enable-background:new 0 0 309.19 97.7;" xml:space="preserve">
<style type="text/css">
	.st0{fill:#FFFFFF;}
</style>
<path class="st0" d="M36.98,44.5V21.94c0-2.15-1.23-3.84-3.38-3.84h-1.54c-2.22,0-2.07,0.23-3.68,1.76l-3.99,3.68V44.5h-5.52V21.94
	c0-2.15-1.23-3.84-3.3-3.84h-0.84c-1.3,0-1.38,0.08-2.46,1l-6.75,6.14V44.5H0V13.04h5.52v5.98l3.84-3.53c1.15-1,2.61-2.46,4.99-2.46
	h1.15c3.91,0,6.29,2.07,7.83,5.37l2.92-2.92c1.07-1.07,2.61-2.38,4.99-2.46h2c5.68-0.08,9.28,4.14,9.28,9.74V44.5H36.98z
	 M60.15,31.69v3.91c0,2.15,1.69,3.84,3.84,3.84h16.5v5.06H64.52c-5.6,0-9.74-4.14-9.74-9.74V22.79c0-5.6,4.14-9.74,9.74-9.74H74.8
	c5.68,0,9.74,4.14,9.74,9.74v8.9H60.15z M79.18,22.17c0-2.15-1.69-3.84-3.84-3.84H63.99c-2.15,0-3.84,1.69-3.84,3.84v4.6h19.03
	V22.17z M106.57,44.5c-5.6,0-9.74-4.14-9.74-9.74V22.79c0-5.52,4.14-9.74,9.74-9.74h5.91c2.46,0,4.45,1.38,5.52,2.46l3.68,3.53V0
	h5.37v44.5H106.57z M121.68,25.24l-5.83-5.37c-1.61-1.54-2-1.76-4.22-1.76h-5.6c-2.15,0-3.84,1.76-3.84,3.84v13.81
	c0,2.15,1.69,3.84,3.84,3.84h15.65V25.24z M139.33,44.5v-4.91h6.44V18.11h-6.44v-5.06h11.82v26.54h6.6v4.91H139.33z M145.46,5.83V0
	h5.83v5.83H145.46z M192.11,25.01V22.1c0-2.53-1.15-3.84-3.84-3.84h-10.59c-2.15,0-3.84,1.69-3.84,3.84v13.35
	c0,2.15,1.69,3.84,3.84,3.84h16.8v5.22h-16.26c-5.6,0-9.74-4.22-9.74-9.9V22.79c0-5.6,4.14-9.74,9.74-9.74h9.51
	c6.21,0,9.74,3.38,9.74,9.28v2.68H192.11z M229.78,44.5h-5.45c-5.6,0-9.67-4.14-9.67-9.74V18.11h-6.45v-5.06h6.45V0h5.37v13.04h7.67
	v5.06h-7.67v17.34c0,2.15,1.76,3.84,3.84,3.84h6.29c2.15,0,3.84-1.69,3.84-3.84v-2.92h5.52v2.23
	C239.53,40.36,235.46,44.5,229.78,44.5z M254.1,31.69v3.91c0,2.15,1.69,3.84,3.84,3.84h16.49v5.06h-15.96
	c-5.6,0-9.74-4.14-9.74-9.74V22.79c0-5.6,4.14-9.74,9.74-9.74h10.28c5.68,0,9.74,4.14,9.74,9.74v8.9H254.1z M273.13,22.17
	c0-2.15-1.69-3.84-3.84-3.84h-11.35c-2.15,0-3.84,1.69-3.84,3.84v4.6h19.03V22.17z M290.78,44.5v-4.91h6.52V4.83h-6.52V0h11.89
	v39.59h6.52v4.91H290.78z M27.49,76.61h-5.11v-2.74h13.55v2.74h-5.17v15.2h-3.28V76.61z M38.65,78.84L40,84.73
	c0.29,1.38,0.59,2.8,0.83,4.21h0.05c0.27-1.41,0.69-2.85,1.06-4.18l1.68-5.91h2.66l1.62,5.75c0.4,1.52,0.75,2.93,1.04,4.34H49
	c0.21-1.41,0.51-2.82,0.85-4.34l1.44-5.75h3.22l-4.07,12.97h-3.04l-1.54-5.27c-0.4-1.36-0.69-2.58-0.99-4.15h-0.05
	c-0.27,1.6-0.61,2.88-0.99,4.15l-1.65,5.27h-3.06l-3.83-12.97H38.65z M68.6,85.21c0,4.77-3.36,6.9-6.66,6.9
	c-3.67,0-6.5-2.53-6.5-6.68c0-4.26,2.8-6.87,6.71-6.87C66.02,78.55,68.6,81.27,68.6,85.21z M58.83,85.34c0,2.5,1.22,4.39,3.22,4.39
	c1.86,0,3.17-1.84,3.17-4.45c0-2.02-0.91-4.34-3.14-4.34C59.76,80.95,58.83,83.18,58.83,85.34z M65.94,73.23l-3.28,3.94H60.4
	l2.32-3.94H65.94z M68.41,94.82c1.06-0.08,1.92-0.37,2.45-0.93c0.61-0.67,0.85-1.68,0.85-4.5V78.84h3.27v11.48
	c0,2.69-0.51,4.37-1.68,5.54c-1.15,1.07-2.96,1.52-4.58,1.52L68.41,94.82z M75.17,75.22c0,0.96-0.69,1.76-1.86,1.76
	c-1.09,0-1.78-0.8-1.78-1.76c0-1.01,0.72-1.78,1.84-1.78S75.17,74.21,75.17,75.22z M85.95,78.84l1.36,5.88
	c0.29,1.38,0.59,2.8,0.83,4.21h0.05c0.27-1.41,0.69-2.85,1.06-4.18l1.68-5.91h2.66l1.62,5.75c0.4,1.52,0.75,2.93,1.04,4.34h0.05
	c0.21-1.41,0.51-2.82,0.85-4.34l1.44-5.75h3.22l-4.07,12.97h-3.04l-1.54-5.27c-0.4-1.36-0.69-2.58-0.99-4.15h-0.05
	c-0.27,1.6-0.61,2.88-0.99,4.15l-1.65,5.27h-3.06L82.6,78.84H85.95z M107.41,75.22c0,0.98-0.72,1.76-1.86,1.76
	c-1.09,0-1.81-0.77-1.81-1.76c0-1.01,0.75-1.78,1.84-1.78C106.69,73.44,107.38,74.21,107.41,75.22z M103.92,91.81V78.84h3.3v12.97
	H103.92z M110.74,83.02c0-1.76-0.03-3.01-0.11-4.18h2.85l0.11,2.48h0.11c0.64-1.84,2.16-2.77,3.54-2.77c0.32,0,0.51,0.03,0.77,0.08
	v3.09c-0.27-0.05-0.56-0.11-0.96-0.11c-1.57,0-2.64,1.01-2.93,2.48c-0.05,0.29-0.11,0.64-0.11,1.01v6.71h-3.27V83.02z M124.58,75.14
	v3.7h3.12v2.45h-3.12v5.72c0,1.57,0.43,2.4,1.68,2.4c0.56,0,0.99-0.08,1.28-0.16l0.05,2.5c-0.48,0.19-1.33,0.32-2.37,0.32
	c-1.2,0-2.21-0.4-2.82-1.07c-0.69-0.75-1.01-1.92-1.01-3.62v-6.1h-1.86v-2.45h1.86v-2.93L124.58,75.14z M141.78,87.92
	c0,1.54,0.05,2.82,0.11,3.89h-2.88l-0.16-1.97h-0.05c-0.56,0.93-1.84,2.26-4.15,2.26c-2.37,0-4.53-1.41-4.53-5.64v-7.62h3.28v7.06
	c0,2.16,0.69,3.54,2.42,3.54c1.3,0,2.16-0.93,2.5-1.76c0.11-0.29,0.19-0.64,0.19-1.01v-7.83h3.27V87.92z M152.61,91.81l-0.21-1.44
	h-0.08c-0.8,1.01-2.16,1.73-3.83,1.73c-2.61,0-4.07-1.89-4.07-3.86c0-3.27,2.9-4.93,7.69-4.9v-0.21c0-0.85-0.35-2.26-2.64-2.26
	c-1.28,0-2.61,0.4-3.49,0.96l-0.64-2.13c0.96-0.59,2.64-1.14,4.69-1.14c4.15,0,5.35,2.64,5.35,5.46v4.69c0,1.17,0.05,2.32,0.19,3.12
	H152.61z M152.19,85.47c-2.32-0.05-4.53,0.45-4.53,2.42c0,1.28,0.83,1.86,1.86,1.86c1.31,0,2.26-0.85,2.56-1.78
	c0.08-0.24,0.11-0.51,0.11-0.72V85.47z M158.84,72.91h3.3v18.91h-3.3V72.91z M165.68,82.71c0-1.49-0.03-2.74-0.11-3.86h2.88
	l0.16,1.94h0.08c0.56-1.01,1.97-2.24,4.13-2.24c2.26,0,4.61,1.46,4.61,5.56v7.7h-3.28v-7.32c0-1.86-0.69-3.28-2.48-3.28
	c-1.3,0-2.21,0.93-2.56,1.92c-0.11,0.29-0.13,0.69-0.13,1.07v7.62h-3.3V82.71z M182.53,78.84l2.34,6.95
	c0.27,0.8,0.53,1.78,0.72,2.53h0.08c0.21-0.75,0.45-1.7,0.69-2.56l2.02-6.92h3.51l-3.25,8.84c-1.78,4.85-2.98,7-4.53,8.33
	c-1.28,1.14-2.61,1.57-3.43,1.68l-0.75-2.77c0.56-0.13,1.25-0.43,1.92-0.91c0.61-0.4,1.33-1.17,1.78-2.05
	c0.13-0.24,0.21-0.43,0.21-0.59c0-0.13-0.03-0.32-0.19-0.64l-4.74-11.9H182.53z M211.16,78.84c-0.05,0.88-0.11,1.94-0.11,3.73v7.35
	c0,2.72-0.56,4.66-1.92,5.88c-1.36,1.2-3.22,1.57-5.01,1.57c-1.65,0-3.41-0.35-4.53-1.04l0.72-2.48c0.83,0.48,2.21,0.99,3.78,0.99
	c2.13,0,3.73-1.12,3.73-3.91v-1.12h-0.05c-0.75,1.14-2.08,1.92-3.78,1.92c-3.22,0-5.51-2.66-5.51-6.34c0-4.26,2.77-6.84,5.88-6.84
	c1.97,0,3.14,0.96,3.75,2.02h0.05l0.13-1.73H211.16z M207.77,84.04c0-0.29-0.03-0.61-0.11-0.88c-0.35-1.2-1.28-2.1-2.66-2.1
	c-1.84,0-3.19,1.6-3.19,4.23c0,2.21,1.12,3.99,3.17,3.99c1.22,0,2.29-0.8,2.66-1.97c0.08-0.35,0.13-0.8,0.13-1.17V84.04z
	 M221.86,91.81l-0.21-1.44h-0.08c-0.8,1.01-2.16,1.73-3.83,1.73c-2.61,0-4.07-1.89-4.07-3.86c0-3.27,2.9-4.93,7.7-4.9v-0.21
	c0-0.85-0.35-2.26-2.64-2.26c-1.28,0-2.61,0.4-3.49,0.96l-0.64-2.13c0.96-0.59,2.64-1.14,4.69-1.14c4.15,0,5.35,2.64,5.35,5.46v4.69
	c0,1.17,0.05,2.32,0.19,3.12H221.86z M221.43,85.47c-2.32-0.05-4.53,0.45-4.53,2.42c0,1.28,0.83,1.86,1.86,1.86
	c1.3,0,2.26-0.85,2.56-1.78c0.08-0.24,0.11-0.51,0.11-0.72V85.47z M227.98,91.81c0.05-0.88,0.11-2.32,0.11-3.65V72.91h3.27v7.72
	h0.05c0.8-1.25,2.21-2.08,4.15-2.08c3.17,0,5.43,2.64,5.41,6.58c0,4.66-2.96,6.98-5.88,6.98c-1.68,0-3.17-0.64-4.1-2.24h-0.05
	l-0.16,1.94H227.98z M231.36,86.46c0,0.27,0.03,0.53,0.08,0.77c0.35,1.3,1.49,2.29,2.9,2.29c2.05,0,3.3-1.65,3.3-4.26
	c0-2.29-1.09-4.15-3.28-4.15c-1.33,0-2.53,0.96-2.9,2.4c-0.05,0.24-0.11,0.53-0.11,0.85V86.46z M247.15,75.22
	c0,0.98-0.72,1.76-1.86,1.76c-1.09,0-1.81-0.77-1.81-1.76c0-1.01,0.75-1.78,1.84-1.78C246.43,73.44,247.12,74.21,247.15,75.22z
	 M243.66,91.81V78.84h3.3v12.97H243.66z M250.47,82.71c0-1.49-0.03-2.74-0.11-3.86h2.88l0.16,1.94h0.08
	c0.56-1.01,1.97-2.24,4.13-2.24c2.26,0,4.61,1.46,4.61,5.56v7.7h-3.28v-7.32c0-1.86-0.69-3.28-2.48-3.28c-1.3,0-2.21,0.93-2.56,1.92
	c-0.11,0.29-0.13,0.69-0.13,1.07v7.62h-3.3V82.71z M268.02,86.25c0.08,2.34,1.92,3.36,3.99,3.36c1.52,0,2.61-0.21,3.59-0.59
	l0.48,2.26c-1.12,0.45-2.66,0.8-4.53,0.8c-4.21,0-6.68-2.58-6.68-6.55c0-3.59,2.18-6.98,6.34-6.98c4.21,0,5.59,3.46,5.59,6.31
	c0,0.61-0.05,1.09-0.11,1.38H268.02z M273.71,83.96c0.03-1.2-0.51-3.17-2.69-3.17c-2.02,0-2.88,1.84-3.01,3.17H273.71z
	 M283.19,75.14v3.7h3.12v2.45h-3.12v5.72c0,1.57,0.43,2.4,1.68,2.4c0.56,0,0.99-0.08,1.28-0.16l0.05,2.5
	c-0.48,0.19-1.33,0.32-2.37,0.32c-1.2,0-2.21-0.4-2.82-1.07c-0.69-0.75-1.01-1.92-1.01-3.62v-6.1h-1.86v-2.45H280v-2.93
	L283.19,75.14z"/>
</svg>
