<?xml version="1.0" encoding="utf-8"?>
<!-- Generator: Adobe Illustrator 24.0.3, SVG Export Plug-In . SVG Version: 6.00 Build 0)  -->
<svg version="1.1" id="Layer_1" xmlns="http://www.w3.org/2000/svg" xmlns:xlink="http://www.w3.org/1999/xlink" x="0px" y="0px"
	 viewBox="0 0 368.8 44.5" style="enable-background:new 0 0 368.8 44.5;" xml:space="preserve">
<path d="M21.56,44.5h-5.45c-5.6,0-9.67-4.14-9.67-9.74V18.11H0v-5.06h6.44V0h5.37v13.04h7.67v5.06h-7.67v17.34
	c0,2.15,1.76,3.84,3.84,3.84h6.29c2.15,0,3.84-1.69,3.84-3.84v-2.92h5.52v2.23C31.3,40.36,27.24,44.5,21.56,44.5z M68.74,44.5H48.72
	c-5.83,0-9.74-4.45-9.74-9.51c0-4.6,3.99-8.75,9.67-8.82h14.73v-3.22c0-3.45-1.53-4.6-5.37-4.6H44.65v-5.29h14.73
	c5.22,0,9.36,4.22,9.36,9.36V44.5z M63.37,31.07H48.41c-2,0-4.14,1.61-4.14,4.22c0,2.15,1.76,4.14,3.84,4.14h15.27V31.07z
	 M105.19,44.5v-6.44l-3.68,3.99c-1.07,1.15-3.15,2.46-5.52,2.46h-5.22c-5.6,0-9.74-4.14-9.74-9.74V13.04h5.37V35.6
	c0,2.15,1.69,3.84,3.84,3.84h4.91c2.23,0,2.69-0.15,4.22-1.76l5.83-6.29V13.04h5.37V44.5H105.19z M145.24,24.93v-2.76
	c0-2.15-1.76-3.84-3.84-3.84h-3.45c-2.22,0-2.69,0.15-4.22,1.69l-5.52,5.45V44.5h-5.37V13.04h5.37v5.98l3.84-4.07
	c1.07-1.07,2.61-1.92,5.06-1.92h3.91c5.6-0.08,9.74,4.07,9.74,9.74v2.15H145.24z M184.52,44.5v-6.44l-3.68,3.99
	c-1.07,1.15-3.15,2.46-5.52,2.46h-5.22c-5.6,0-9.74-4.14-9.74-9.74V13.04h5.37V35.6c0,2.15,1.69,3.84,3.84,3.84h4.91
	c2.22,0,2.68-0.15,4.22-1.76l5.83-6.29V13.04h5.37V44.5H184.52z M220.88,44.5h-17.57v-5.22h18.11c2.07,0,3.84-1.69,3.84-3.84
	c0-2.61-2.15-3.68-4.14-3.76l-9.9-0.31c-5.91-0.23-10.2-3.91-10.2-8.82c0-5.06,3.91-9.51,9.74-9.51h17.19v5.22h-17.72
	c-2.07,0-3.84,1.84-3.84,3.99c0,2.61,2.61,3.84,4.37,3.91l10.2,0.23c5.68,0.15,9.67,4.14,9.67,8.75
	C230.63,40.2,226.72,44.5,220.88,44.5z M278.73,44.5V21.94c0-2.15-1.23-3.84-3.38-3.84h-1.53c-2.22,0-2.07,0.23-3.68,1.76
	l-3.99,3.68V44.5h-5.52V21.94c0-2.15-1.23-3.84-3.3-3.84h-0.84c-1.3,0-1.38,0.08-2.46,1l-6.75,6.14V44.5h-5.52V13.04h5.52v5.98
	l3.84-3.53c1.15-1,2.61-2.46,4.99-2.46h1.15c3.91,0,6.29,2.07,7.83,5.37l2.92-2.92c1.07-1.07,2.61-2.38,4.99-2.46h2
	c5.68-0.08,9.28,4.14,9.28,9.74V44.5H278.73z M301.9,31.69v3.91c0,2.15,1.69,3.84,3.84,3.84h16.5v5.06h-15.96
	c-5.6,0-9.74-4.14-9.74-9.74V22.79c0-5.6,4.14-9.74,9.74-9.74h10.28c5.68,0,9.74,4.14,9.74,9.74v8.9H301.9z M320.93,22.17
	c0-2.15-1.69-3.84-3.84-3.84h-11.36c-2.15,0-3.84,1.69-3.84,3.84v4.6h19.03V22.17z M348.32,44.5c-5.6,0-9.74-4.14-9.74-9.74V22.79
	c0-5.52,4.14-9.74,9.74-9.74h5.91c2.46,0,4.45,1.38,5.52,2.46l3.68,3.53V0h5.37v44.5H348.32z M363.43,25.24l-5.83-5.37
	c-1.61-1.54-2-1.76-4.22-1.76h-5.6c-2.15,0-3.84,1.76-3.84,3.84v13.81c0,2.15,1.69,3.84,3.84,3.84h15.65V25.24z"/>
</svg>
