<?xml version="1.0" encoding="utf-8"?>
<!-- Generator: Adobe Illustrator 24.0.3, SVG Export Plug-In . SVG Version: 6.00 Build 0)  -->
<svg version="1.1" id="Layer_1" xmlns="http://www.w3.org/2000/svg" xmlns:xlink="http://www.w3.org/1999/xlink" x="0px" y="0px"
	 viewBox="0 0 151.64 21.23" style="enable-background:new 0 0 151.64 21.23;" xml:space="preserve">
<style type="text/css">
	.st0{fill:#ED1447;}
</style>
<path class="st0" d="M27.16,3.21c-0.73,0.42-1.12,0.87-1.45,1.76c-1.29,3.41-3.72,10.34-5.73,16.09h-1.15
	c-1.73-5.78-3.3-10.7-4.44-14.22l-5.2,14.22h-1.2c-2.21-7.26-4.3-14-5.06-16.54c-0.17-0.59-0.5-1.01-1.12-1.37
	C1.31,2.85,0.53,2.71,0,2.68V1.76h8.55v0.92C7.57,2.74,5.78,2.82,5.78,3.41c0,0.17,0.06,0.53,0.11,0.7
	c0.39,1.26,1.79,5.98,3.77,12.24l4.11-11.18c0-0.81-0.28-1.62-1.12-2.04c-0.53-0.28-1.76-0.42-2.29-0.45V1.76h8.72v0.92
	C18.1,2.74,16.4,2.85,16.4,3.41c0,0.2,0.06,0.5,0.11,0.7c0.36,1.17,1.9,5.9,3.94,12.13c1.56-4.36,2.63-7.57,3.3-9.83
	c0.42-1.45,0.56-2.04,0.56-2.51c0-0.87-1.7-1.12-2.99-1.2V1.76h7.66v0.92C28.44,2.71,27.66,2.93,27.16,3.21z M33.36,21.23
	c-3.35,0-6.31-2.6-6.31-6.79c0-4.05,2.6-6.87,6.51-6.87c3.91,0,6.37,2.88,6.37,6.68C39.92,18.05,37.58,21.23,33.36,21.23z
	 M33.52,8.52c-2.91,0-3.66,3.1-3.66,5.7c0,3.24,1.03,6.06,3.66,6.06c2.49,0,3.58-2.74,3.58-6.01C37.1,11.43,36.23,8.52,33.52,8.52z
	 M50.09,20.84v-0.87c0.5-0.03,0.92-0.06,1.31-0.17c0.53-0.17,0.75-0.61,0.75-1.23v-6.45c0-1.93-1.12-2.99-2.32-2.99
	c-2.04,0-3.19,1.34-3.49,1.98v7.32c0,0.61,0.25,1.01,0.75,1.23c0.42,0.2,0.84,0.28,1.31,0.31v0.87h-6.59v-0.87
	c0.5-0.03,0.84-0.06,1.23-0.17c0.53-0.17,0.75-0.61,0.75-1.23v-7.82c-0.06-0.59-0.31-1.17-0.75-1.48c-0.34-0.22-0.87-0.33-1.37-0.36
	V8.07l4.47-0.31l0.2,0.2v1.9h0.06c1.06-1.03,2.12-2.29,4.53-2.29c2.6,0,3.8,1.76,3.8,4.41v6.48c0,0.61,0.22,1.01,0.73,1.23
	c0.39,0.17,0.73,0.25,1.23,0.28v0.87H50.09z M68.28,20.9l-0.2-0.2v-1.2l-0.11-0.03c-0.61,0.64-1.96,1.73-3.72,1.73
	c-3.27,0-5.98-2.71-5.98-6.98c0-3.91,3.1-6.65,6.4-6.65c1.76,0,3.04,0.64,3.38,0.81V3.3C68,2.71,67.77,1.98,67.33,1.68
	c-0.53-0.36-1.65-0.5-2.46-0.56V0.31L70.4,0l0.2,0.2V18.1c0,0.67,0.28,1.06,0.73,1.37c0.33,0.22,1.15,0.25,1.65,0.28v0.84
	L68.28,20.9z M68.05,10.78c-0.31-0.92-1.23-2.23-3.16-2.23c-2.12,0-3.77,2.23-3.77,5.98c0,2.71,1.17,5.28,4.08,5.28
	c1.34,0,2.12-0.64,2.85-1.42V10.78z M80.54,21.18c-4.3,0-6.31-3.13-6.31-6.9c0-3.44,2.26-6.71,6.04-6.71c3.91,0,5.34,2.57,5.34,5.48
	v0.73h-8.63c0,3.6,1.26,5.98,4.36,5.98c1.9,0,2.77-0.89,3.72-2.49l0.87,0.53C84.9,19.78,82.94,21.18,80.54,21.18z M80.23,8.52
	c-1.79,0-3.18,1.65-3.27,4.27l5.95-0.06C82.92,10.73,82.41,8.52,80.23,8.52z M96.02,11.37c-0.89,0-1.42-0.39-1.42-1.34
	c0-0.25,0.17-0.75,0.2-0.89c-1.42,0-2.51,1.31-2.85,1.93v7.38c0,0.61,0.25,1.03,0.75,1.23c0.47,0.2,1.29,0.28,1.82,0.31v0.87h-7.1
	v-0.87c0.5-0.03,0.84-0.06,1.23-0.17c0.53-0.17,0.75-0.61,0.75-1.23v-7.82c-0.06-0.59-0.31-1.17-0.75-1.48
	c-0.34-0.22-0.87-0.33-1.37-0.36V8.07l4.47-0.31l0.2,0.2v1.9h0.06c1.2-1.54,2.54-2.23,3.72-2.23c1.03,0,1.87,0.78,1.87,1.84
	C97.58,10.5,96.97,11.37,96.02,11.37z M98.42,20.84v-0.87c0.5-0.03,0.84-0.06,1.23-0.17c0.53-0.17,0.75-0.61,0.75-1.23V3.21
	c0-0.64-0.31-1.29-0.75-1.59c-0.33-0.22-1.45-0.45-1.96-0.47V0.31L102.75,0l0.2,0.2v18.22c0,0.61,0.25,1.03,0.75,1.26
	c0.42,0.2,0.73,0.28,1.23,0.31v0.87H98.42z M116.72,21.12c-1.31,0-2.01-0.59-2.46-1.87h-0.08c-1.01,1.17-2.54,1.93-4.22,1.93
	c-1.93,0-3.24-1.23-3.24-3.07c0-2.4,1.34-3.24,2.74-3.77c1.59-0.61,3.6-1.17,4.78-1.79v-1.26c0-0.5-0.11-2.79-2.43-2.79
	c-0.89,0-1.56,0.39-1.82,0.67c0,0.42,0.25,1.12,0.25,1.73s-0.61,1.23-1.62,1.23c-0.92,0-1.26-0.75-1.26-1.51
	c0-1.7,2.49-3.05,4.61-3.05c2.77,0,4.83,0.5,4.83,4.25c0,2.51-0.14,5.5-0.14,6.43c0,0.33,0.31,1.37,1.23,1.37
	c0.73,0,0.98-1.06,1.01-2.1h0.89C119.65,20.14,118.51,21.12,116.72,21.12z M109.43,17.63c0,1.45,0.73,2.1,1.93,2.1
	c1.45,0,2.12-0.64,2.79-1.42l0.11-4.64C111.46,14.5,109.43,15.37,109.43,17.63z M128.76,20.84v-0.87c0.5-0.03,0.92-0.06,1.31-0.17
	c0.53-0.17,0.75-0.61,0.75-1.23v-6.45c0-1.93-1.12-2.99-2.32-2.99c-2.04,0-3.19,1.34-3.49,1.98v7.32c0,0.61,0.25,1.01,0.75,1.23
	c0.42,0.2,0.84,0.28,1.31,0.31v0.87h-6.59v-0.87c0.5-0.03,0.84-0.06,1.23-0.17c0.53-0.17,0.75-0.61,0.75-1.23v-7.82
	c-0.06-0.59-0.31-1.17-0.75-1.48c-0.34-0.22-0.87-0.33-1.37-0.36V8.07l4.47-0.31l0.2,0.2v1.9h0.06c1.06-1.03,2.12-2.29,4.53-2.29
	c2.6,0,3.8,1.76,3.8,4.41v6.48c0,0.61,0.22,1.01,0.73,1.23c0.39,0.17,0.73,0.25,1.23,0.28v0.87H128.76z M146.94,20.9l-0.2-0.2v-1.2
	l-0.11-0.03c-0.61,0.64-1.96,1.73-3.72,1.73c-3.27,0-5.98-2.71-5.98-6.98c0-3.91,3.1-6.65,6.4-6.65c1.76,0,3.04,0.64,3.38,0.81V3.3
	c-0.06-0.59-0.28-1.31-0.73-1.62c-0.53-0.36-1.65-0.5-2.46-0.56V0.31L149.07,0l0.2,0.2V18.1c0,0.67,0.28,1.06,0.73,1.37
	c0.33,0.22,1.15,0.25,1.65,0.28v0.84L146.94,20.9z M146.72,10.78c-0.31-0.92-1.23-2.23-3.16-2.23c-2.12,0-3.77,2.23-3.77,5.98
	c0,2.71,1.17,5.28,4.08,5.28c1.34,0,2.12-0.64,2.85-1.42V10.78z"/>
</svg>
